<?xml version="1.0" encoding="utf-8" standalone="no"?>
<!DOCTYPE svg PUBLIC "-//W3C//DTD SVG 1.1//EN"
  "http://www.w3.org/Graphics/SVG/1.1/DTD/svg11.dtd">
<svg xmlns:xlink="http://www.w3.org/1999/xlink" width="482.908672pt" height="266.138359pt" viewBox="0 0 482.908672 266.138359" xmlns="http://www.w3.org/2000/svg" version="1.1">
 <metadata>
  <rdf:RDF xmlns:dc="http://purl.org/dc/elements/1.1/" xmlns:cc="http://creativecommons.org/ns#" xmlns:rdf="http://www.w3.org/1999/02/22-rdf-syntax-ns#">
   <cc:Work>
    <dc:type rdf:resource="http://purl.org/dc/dcmitype/StillImage"/>
    <dc:date>2026-09-18T10:57:52.289162</dc:date>
    <dc:format>image/svg+xml</dc:format>
    <dc:creator>
     <cc:Agent>
      <dc:title>Matplotlib v3.11.0, https://matplotlib.org/</dc:title>
     </cc:Agent>
    </dc:creator>
   </cc:Work>
  </rdf:RDF>
 </metadata>
 <defs>
  <style type="text/css">*{stroke-linejoin: round; stroke-linecap: butt}</style>
 </defs>
 <g id="figure_1">
  <g id="patch_1">
   <path d="M 0 266.138359 
L 482.908672 266.138359 
L 482.908672 0 
L 0 0 
L 0 266.138359 
z
" style="fill: none"/>
  </g>
  <g id="axes_1">
   <g id="patch_2">
    <path d="M 40.468672 242.938359 
L 475.708672 242.938359 
L 475.708672 21.178359 
L 40.468672 21.178359 
L 40.468672 242.938359 
z
" style="fill: none"/>
   </g>
   <g id="matplotlib.axis_1">
    <g id="xtick_1">
     <g id="line2d_1">
      <defs>
       <path id="m9659940283" d="M 0 0 
L 0 3.5 
" style="stroke: #52514e; stroke-width: 0.8"/>
      </defs>
      <g>
       <use xlink:href="#m9659940283" x="88.009267" y="242.938359" style="fill: #52514e; stroke: #52514e; stroke-width: 0.8"/>
      </g>
     </g>
     <g id="text_1">
      <!-- 0.5B -->
      <g style="fill: #52514e" transform="translate(77.765439 256.77625) scale(0.09 -0.09)">
       <defs>
        <path id="DejaVuSans-13" d="M 2034 4250 
Q 1547 4250 1301 3770 
Q 1056 3291 1056 2328 
Q 1056 1369 1301 889 
Q 1547 409 2034 409 
Q 2525 409 2770 889 
Q 3016 1369 3016 2328 
Q 3016 3291 2770 3770 
Q 2525 4250 2034 4250 
z
M 2034 4750 
Q 2819 4750 3233 4129 
Q 3647 3509 3647 2328 
Q 3647 1150 3233 529 
Q 2819 -91 2034 -91 
Q 1250 -91 836 529 
Q 422 1150 422 2328 
Q 422 3509 836 4129 
Q 1250 4750 2034 4750 
z
" transform="scale(0.015625)"/>
        <path id="DejaVuSans-11" d="M 684 794 
L 1344 794 
L 1344 0 
L 684 0 
L 684 794 
z
" transform="scale(0.015625)"/>
        <path id="DejaVuSans-18" d="M 691 4666 
L 3169 4666 
L 3169 4134 
L 1269 4134 
L 1269 2991 
Q 1406 3038 1543 3061 
Q 1681 3084 1819 3084 
Q 2600 3084 3056 2656 
Q 3513 2228 3513 1497 
Q 3513 744 3044 326 
Q 2575 -91 1722 -91 
Q 1428 -91 1123 -41 
Q 819 9 494 109 
L 494 744 
Q 775 591 1075 516 
Q 1375 441 1709 441 
Q 2250 441 2565 725 
Q 2881 1009 2881 1497 
Q 2881 1984 2565 2268 
Q 2250 2553 1709 2553 
Q 1456 2553 1204 2497 
Q 953 2441 691 2322 
L 691 4666 
z
" transform="scale(0.015625)"/>
        <path id="DejaVuSans-25" d="M 1259 2228 
L 1259 519 
L 2272 519 
Q 2781 519 3026 730 
Q 3272 941 3272 1375 
Q 3272 1813 3026 2020 
Q 2781 2228 2272 2228 
L 1259 2228 
z
M 1259 4147 
L 1259 2741 
L 2194 2741 
Q 2656 2741 2882 2914 
Q 3109 3088 3109 3444 
Q 3109 3797 2882 3972 
Q 2656 4147 2194 4147 
L 1259 4147 
z
M 628 4666 
L 2241 4666 
Q 2963 4666 3353 4366 
Q 3744 4066 3744 3513 
Q 3744 3084 3544 2831 
Q 3344 2578 2956 2516 
Q 3422 2416 3680 2098 
Q 3938 1781 3938 1306 
Q 3938 681 3513 340 
Q 3088 0 2303 0 
L 628 0 
L 628 4666 
z
" transform="scale(0.015625)"/>
       </defs>
       <use xlink:href="#DejaVuSans-13"/>
       <use xlink:href="#DejaVuSans-11" transform="translate(63.625 0)"/>
       <use xlink:href="#DejaVuSans-18" transform="translate(95.40625 0)"/>
       <use xlink:href="#DejaVuSans-25" transform="translate(159.03125 0)"/>
      </g>
     </g>
    </g>
    <g id="xtick_2">
     <g id="line2d_2">
      <g>
       <use xlink:href="#m9659940283" x="173.048969" y="242.938359" style="fill: #52514e; stroke: #52514e; stroke-width: 0.8"/>
      </g>
     </g>
     <g id="text_2">
      <!-- 1.5B -->
      <g style="fill: #52514e" transform="translate(162.805141 256.77625) scale(0.09 -0.09)">
       <defs>
        <path id="DejaVuSans-14" d="M 794 531 
L 1825 531 
L 1825 4091 
L 703 3866 
L 703 4441 
L 1819 4666 
L 2450 4666 
L 2450 531 
L 3481 531 
L 3481 0 
L 794 0 
L 794 531 
z
" transform="scale(0.015625)"/>
       </defs>
       <use xlink:href="#DejaVuSans-14"/>
       <use xlink:href="#DejaVuSans-11" transform="translate(63.625 0)"/>
       <use xlink:href="#DejaVuSans-18" transform="translate(95.40625 0)"/>
       <use xlink:href="#DejaVuSans-25" transform="translate(159.03125 0)"/>
      </g>
     </g>
    </g>
    <g id="xtick_3">
     <g id="line2d_3">
      <g>
       <use xlink:href="#m9659940283" x="258.088672" y="242.938359" style="fill: #52514e; stroke: #52514e; stroke-width: 0.8"/>
      </g>
     </g>
     <g id="text_3">
      <!-- 3B -->
      <g style="fill: #52514e" transform="translate(252.138125 256.77625) scale(0.09 -0.09)">
       <defs>
        <path id="DejaVuSans-16" d="M 2597 2516 
Q 3050 2419 3304 2112 
Q 3559 1806 3559 1356 
Q 3559 666 3084 287 
Q 2609 -91 1734 -91 
Q 1441 -91 1130 -33 
Q 819 25 488 141 
L 488 750 
Q 750 597 1062 519 
Q 1375 441 1716 441 
Q 2309 441 2620 675 
Q 2931 909 2931 1356 
Q 2931 1769 2642 2001 
Q 2353 2234 1838 2234 
L 1294 2234 
L 1294 2753 
L 1863 2753 
Q 2328 2753 2575 2939 
Q 2822 3125 2822 3475 
Q 2822 3834 2567 4026 
Q 2313 4219 1838 4219 
Q 1578 4219 1281 4162 
Q 984 4106 628 3988 
L 628 4550 
Q 988 4650 1302 4700 
Q 1616 4750 1894 4750 
Q 2613 4750 3031 4423 
Q 3450 4097 3450 3541 
Q 3450 3153 3228 2886 
Q 3006 2619 2597 2516 
z
" transform="scale(0.015625)"/>
       </defs>
       <use xlink:href="#DejaVuSans-16"/>
       <use xlink:href="#DejaVuSans-25" transform="translate(63.625 0)"/>
      </g>
     </g>
    </g>
    <g id="xtick_4">
     <g id="line2d_4">
      <g>
       <use xlink:href="#m9659940283" x="343.128374" y="242.938359" style="fill: #52514e; stroke: #52514e; stroke-width: 0.8"/>
      </g>
     </g>
     <g id="text_4">
      <!-- 7B -->
      <g style="fill: #52514e" transform="translate(337.177827 256.77625) scale(0.09 -0.09)">
       <defs>
        <path id="DejaVuSans-1a" d="M 525 4666 
L 3525 4666 
L 3525 4397 
L 1831 0 
L 1172 0 
L 2766 4134 
L 525 4134 
L 525 4666 
z
" transform="scale(0.015625)"/>
       </defs>
       <use xlink:href="#DejaVuSans-1a"/>
       <use xlink:href="#DejaVuSans-25" transform="translate(63.625 0)"/>
      </g>
     </g>
    </g>
    <g id="xtick_5">
     <g id="line2d_5">
      <g>
       <use xlink:href="#m9659940283" x="428.168077" y="242.938359" style="fill: #52514e; stroke: #52514e; stroke-width: 0.8"/>
      </g>
     </g>
     <g id="text_5">
      <!-- 14B -->
      <g style="fill: #52514e" transform="translate(419.354405 256.77625) scale(0.09 -0.09)">
       <defs>
        <path id="DejaVuSans-17" d="M 2419 4116 
L 825 1625 
L 2419 1625 
L 2419 4116 
z
M 2253 4666 
L 3047 4666 
L 3047 1625 
L 3713 1625 
L 3713 1100 
L 3047 1100 
L 3047 0 
L 2419 0 
L 2419 1100 
L 313 1100 
L 313 1709 
L 2253 4666 
z
" transform="scale(0.015625)"/>
       </defs>
       <use xlink:href="#DejaVuSans-14"/>
       <use xlink:href="#DejaVuSans-17" transform="translate(63.625 0)"/>
       <use xlink:href="#DejaVuSans-25" transform="translate(127.25 0)"/>
      </g>
     </g>
    </g>
   </g>
   <g id="matplotlib.axis_2">
    <g id="ytick_1">
     <g id="line2d_6">
      <path d="M 40.468672 229.708359 
L 475.708672 229.708359 
" clip-path="url(#p651c4721d7)" style="fill: none; stroke: #e2e1dd; stroke-width: 0.6; stroke-linecap: square"/>
     </g>
     <g id="line2d_7">
      <defs>
       <path id="mdc979c0ae5" d="M 0 0 
L -3.5 0 
" style="stroke: #52514e; stroke-width: 0.8"/>
      </defs>
      <g>
       <use xlink:href="#mdc979c0ae5" x="40.468672" y="229.708359" style="fill: #52514e; stroke: #52514e; stroke-width: 0.8"/>
      </g>
     </g>
     <g id="text_6">
      <!-- −2 -->
      <g style="fill: #52514e" transform="translate(20.200703 233.127305) scale(0.09 -0.09)">
       <defs>
        <path id="DejaVuSans-c9c" d="M 678 2272 
L 4684 2272 
L 4684 1741 
L 678 1741 
L 678 2272 
z
" transform="scale(0.015625)"/>
        <path id="DejaVuSans-15" d="M 1228 531 
L 3431 531 
L 3431 0 
L 469 0 
L 469 531 
Q 828 903 1448 1529 
Q 2069 2156 2228 2338 
Q 2531 2678 2651 2914 
Q 2772 3150 2772 3378 
Q 2772 3750 2511 3984 
Q 2250 4219 1831 4219 
Q 1534 4219 1204 4116 
Q 875 4013 500 3803 
L 500 4441 
Q 881 4594 1212 4672 
Q 1544 4750 1819 4750 
Q 2544 4750 2975 4387 
Q 3406 4025 3406 3419 
Q 3406 3131 3298 2873 
Q 3191 2616 2906 2266 
Q 2828 2175 2409 1742 
Q 1991 1309 1228 531 
z
" transform="scale(0.015625)"/>
       </defs>
       <use xlink:href="#DejaVuSans-c9c"/>
       <use xlink:href="#DejaVuSans-15" transform="translate(83.796875 0)"/>
      </g>
     </g>
    </g>
    <g id="ytick_2">
     <g id="line2d_8">
      <path d="M 40.468672 198.208359 
L 475.708672 198.208359 
" clip-path="url(#p651c4721d7)" style="fill: none; stroke: #e2e1dd; stroke-width: 0.6; stroke-linecap: square"/>
     </g>
     <g id="line2d_9">
      <g>
       <use xlink:href="#mdc979c0ae5" x="40.468672" y="198.208359" style="fill: #52514e; stroke: #52514e; stroke-width: 0.8"/>
      </g>
     </g>
     <g id="text_7">
      <!-- 0 -->
      <g style="fill: #52514e" transform="translate(27.742422 201.627305) scale(0.09 -0.09)">
       <use xlink:href="#DejaVuSans-13"/>
      </g>
     </g>
    </g>
    <g id="ytick_3">
     <g id="line2d_10">
      <path d="M 40.468672 166.708359 
L 475.708672 166.708359 
" clip-path="url(#p651c4721d7)" style="fill: none; stroke: #e2e1dd; stroke-width: 0.6; stroke-linecap: square"/>
     </g>
     <g id="line2d_11">
      <g>
       <use xlink:href="#mdc979c0ae5" x="40.468672" y="166.708359" style="fill: #52514e; stroke: #52514e; stroke-width: 0.8"/>
      </g>
     </g>
     <g id="text_8">
      <!-- 2 -->
      <g style="fill: #52514e" transform="translate(27.742422 170.127305) scale(0.09 -0.09)">
       <use xlink:href="#DejaVuSans-15"/>
      </g>
     </g>
    </g>
    <g id="ytick_4">
     <g id="line2d_12">
      <path d="M 40.468672 135.208359 
L 475.708672 135.208359 
" clip-path="url(#p651c4721d7)" style="fill: none; stroke: #e2e1dd; stroke-width: 0.6; stroke-linecap: square"/>
     </g>
     <g id="line2d_13">
      <g>
       <use xlink:href="#mdc979c0ae5" x="40.468672" y="135.208359" style="fill: #52514e; stroke: #52514e; stroke-width: 0.8"/>
      </g>
     </g>
     <g id="text_9">
      <!-- 4 -->
      <g style="fill: #52514e" transform="translate(27.742422 138.627305) scale(0.09 -0.09)">
       <use xlink:href="#DejaVuSans-17"/>
      </g>
     </g>
    </g>
    <g id="ytick_5">
     <g id="line2d_14">
      <path d="M 40.468672 103.708359 
L 475.708672 103.708359 
" clip-path="url(#p651c4721d7)" style="fill: none; stroke: #e2e1dd; stroke-width: 0.6; stroke-linecap: square"/>
     </g>
     <g id="line2d_15">
      <g>
       <use xlink:href="#mdc979c0ae5" x="40.468672" y="103.708359" style="fill: #52514e; stroke: #52514e; stroke-width: 0.8"/>
      </g>
     </g>
     <g id="text_10">
      <!-- 6 -->
      <g style="fill: #52514e" transform="translate(27.742422 107.127305) scale(0.09 -0.09)">
       <defs>
        <path id="DejaVuSans-19" d="M 2113 2584 
Q 1688 2584 1439 2293 
Q 1191 2003 1191 1497 
Q 1191 994 1439 701 
Q 1688 409 2113 409 
Q 2538 409 2786 701 
Q 3034 994 3034 1497 
Q 3034 2003 2786 2293 
Q 2538 2584 2113 2584 
z
M 3366 4563 
L 3366 3988 
Q 3128 4100 2886 4159 
Q 2644 4219 2406 4219 
Q 1781 4219 1451 3797 
Q 1122 3375 1075 2522 
Q 1259 2794 1537 2939 
Q 1816 3084 2150 3084 
Q 2853 3084 3261 2657 
Q 3669 2231 3669 1497 
Q 3669 778 3244 343 
Q 2819 -91 2113 -91 
Q 1303 -91 875 529 
Q 447 1150 447 2328 
Q 447 3434 972 4092 
Q 1497 4750 2381 4750 
Q 2619 4750 2861 4703 
Q 3103 4656 3366 4563 
z
" transform="scale(0.015625)"/>
       </defs>
       <use xlink:href="#DejaVuSans-19"/>
      </g>
     </g>
    </g>
    <g id="ytick_6">
     <g id="line2d_16">
      <path d="M 40.468672 72.208359 
L 475.708672 72.208359 
" clip-path="url(#p651c4721d7)" style="fill: none; stroke: #e2e1dd; stroke-width: 0.6; stroke-linecap: square"/>
     </g>
     <g id="line2d_17">
      <g>
       <use xlink:href="#mdc979c0ae5" x="40.468672" y="72.208359" style="fill: #52514e; stroke: #52514e; stroke-width: 0.8"/>
      </g>
     </g>
     <g id="text_11">
      <!-- 8 -->
      <g style="fill: #52514e" transform="translate(27.742422 75.627305) scale(0.09 -0.09)">
       <defs>
        <path id="DejaVuSans-1b" d="M 2034 2216 
Q 1584 2216 1326 1975 
Q 1069 1734 1069 1313 
Q 1069 891 1326 650 
Q 1584 409 2034 409 
Q 2484 409 2743 651 
Q 3003 894 3003 1313 
Q 3003 1734 2745 1975 
Q 2488 2216 2034 2216 
z
M 1403 2484 
Q 997 2584 770 2862 
Q 544 3141 544 3541 
Q 544 4100 942 4425 
Q 1341 4750 2034 4750 
Q 2731 4750 3128 4425 
Q 3525 4100 3525 3541 
Q 3525 3141 3298 2862 
Q 3072 2584 2669 2484 
Q 3125 2378 3379 2068 
Q 3634 1759 3634 1313 
Q 3634 634 3220 271 
Q 2806 -91 2034 -91 
Q 1263 -91 848 271 
Q 434 634 434 1313 
Q 434 1759 690 2068 
Q 947 2378 1403 2484 
z
M 1172 3481 
Q 1172 3119 1398 2916 
Q 1625 2713 2034 2713 
Q 2441 2713 2670 2916 
Q 2900 3119 2900 3481 
Q 2900 3844 2670 4047 
Q 2441 4250 2034 4250 
Q 1625 4250 1398 4047 
Q 1172 3844 1172 3481 
z
" transform="scale(0.015625)"/>
       </defs>
       <use xlink:href="#DejaVuSans-1b"/>
      </g>
     </g>
    </g>
    <g id="ytick_7">
     <g id="line2d_18">
      <path d="M 40.468672 40.708359 
L 475.708672 40.708359 
" clip-path="url(#p651c4721d7)" style="fill: none; stroke: #e2e1dd; stroke-width: 0.6; stroke-linecap: square"/>
     </g>
     <g id="line2d_19">
      <g>
       <use xlink:href="#mdc979c0ae5" x="40.468672" y="40.708359" style="fill: #52514e; stroke: #52514e; stroke-width: 0.8"/>
      </g>
     </g>
     <g id="text_12">
      <!-- 10 -->
      <g style="fill: #52514e" transform="translate(22.016172 44.127305) scale(0.09 -0.09)">
       <use xlink:href="#DejaVuSans-14"/>
       <use xlink:href="#DejaVuSans-13" transform="translate(63.625 0)"/>
      </g>
     </g>
    </g>
    <g id="text_13">
     <!-- points above base -->
     <g style="fill: #52514e" transform="translate(14.038594 173.267109) rotate(-90) scale(0.09 -0.09)">
      <defs>
       <path id="DejaVuSans-53" d="M 1159 525 
L 1159 -1331 
L 581 -1331 
L 581 3500 
L 1159 3500 
L 1159 2969 
Q 1341 3281 1617 3432 
Q 1894 3584 2278 3584 
Q 2916 3584 3314 3078 
Q 3713 2572 3713 1747 
Q 3713 922 3314 415 
Q 2916 -91 2278 -91 
Q 1894 -91 1617 61 
Q 1341 213 1159 525 
z
M 3116 1747 
Q 3116 2381 2855 2742 
Q 2594 3103 2138 3103 
Q 1681 3103 1420 2742 
Q 1159 2381 1159 1747 
Q 1159 1113 1420 752 
Q 1681 391 2138 391 
Q 2594 391 2855 752 
Q 3116 1113 3116 1747 
z
" transform="scale(0.015625)"/>
       <path id="DejaVuSans-52" d="M 1959 3097 
Q 1497 3097 1228 2736 
Q 959 2375 959 1747 
Q 959 1119 1226 758 
Q 1494 397 1959 397 
Q 2419 397 2687 759 
Q 2956 1122 2956 1747 
Q 2956 2369 2687 2733 
Q 2419 3097 1959 3097 
z
M 1959 3584 
Q 2709 3584 3137 3096 
Q 3566 2609 3566 1747 
Q 3566 888 3137 398 
Q 2709 -91 1959 -91 
Q 1206 -91 779 398 
Q 353 888 353 1747 
Q 353 2609 779 3096 
Q 1206 3584 1959 3584 
z
" transform="scale(0.015625)"/>
       <path id="DejaVuSans-4c" d="M 603 3500 
L 1178 3500 
L 1178 0 
L 603 0 
L 603 3500 
z
M 603 4863 
L 1178 4863 
L 1178 4134 
L 603 4134 
L 603 4863 
z
" transform="scale(0.015625)"/>
       <path id="DejaVuSans-51" d="M 3513 2113 
L 3513 0 
L 2938 0 
L 2938 2094 
Q 2938 2591 2744 2837 
Q 2550 3084 2163 3084 
Q 1697 3084 1428 2787 
Q 1159 2491 1159 1978 
L 1159 0 
L 581 0 
L 581 3500 
L 1159 3500 
L 1159 2956 
Q 1366 3272 1645 3428 
Q 1925 3584 2291 3584 
Q 2894 3584 3203 3211 
Q 3513 2838 3513 2113 
z
" transform="scale(0.015625)"/>
       <path id="DejaVuSans-57" d="M 1172 4494 
L 1172 3500 
L 2356 3500 
L 2356 3053 
L 1172 3053 
L 1172 1153 
Q 1172 725 1289 603 
Q 1406 481 1766 481 
L 2356 481 
L 2356 0 
L 1766 0 
Q 1100 0 847 248 
Q 594 497 594 1153 
L 594 3053 
L 172 3053 
L 172 3500 
L 594 3500 
L 594 4494 
L 1172 4494 
z
" transform="scale(0.015625)"/>
       <path id="DejaVuSans-56" d="M 2834 3397 
L 2834 2853 
Q 2591 2978 2328 3040 
Q 2066 3103 1784 3103 
Q 1356 3103 1142 2972 
Q 928 2841 928 2578 
Q 928 2378 1081 2264 
Q 1234 2150 1697 2047 
L 1894 2003 
Q 2506 1872 2764 1633 
Q 3022 1394 3022 966 
Q 3022 478 2636 193 
Q 2250 -91 1575 -91 
Q 1294 -91 989 -36 
Q 684 19 347 128 
L 347 722 
Q 666 556 975 473 
Q 1284 391 1588 391 
Q 1994 391 2212 530 
Q 2431 669 2431 922 
Q 2431 1156 2273 1281 
Q 2116 1406 1581 1522 
L 1381 1569 
Q 847 1681 609 1914 
Q 372 2147 372 2553 
Q 372 3047 722 3315 
Q 1072 3584 1716 3584 
Q 2034 3584 2315 3537 
Q 2597 3491 2834 3397 
z
" transform="scale(0.015625)"/>
       <path id="DejaVuSans-3" transform="scale(0.015625)"/>
       <path id="DejaVuSans-44" d="M 2194 1759 
Q 1497 1759 1228 1600 
Q 959 1441 959 1056 
Q 959 750 1161 570 
Q 1363 391 1709 391 
Q 2188 391 2477 730 
Q 2766 1069 2766 1631 
L 2766 1759 
L 2194 1759 
z
M 3341 1997 
L 3341 0 
L 2766 0 
L 2766 531 
Q 2569 213 2275 61 
Q 1981 -91 1556 -91 
Q 1019 -91 701 211 
Q 384 513 384 1019 
Q 384 1609 779 1909 
Q 1175 2209 1959 2209 
L 2766 2209 
L 2766 2266 
Q 2766 2663 2505 2880 
Q 2244 3097 1772 3097 
Q 1472 3097 1187 3025 
Q 903 2953 641 2809 
L 641 3341 
Q 956 3463 1253 3523 
Q 1550 3584 1831 3584 
Q 2591 3584 2966 3190 
Q 3341 2797 3341 1997 
z
" transform="scale(0.015625)"/>
       <path id="DejaVuSans-45" d="M 3116 1747 
Q 3116 2381 2855 2742 
Q 2594 3103 2138 3103 
Q 1681 3103 1420 2742 
Q 1159 2381 1159 1747 
Q 1159 1113 1420 752 
Q 1681 391 2138 391 
Q 2594 391 2855 752 
Q 3116 1113 3116 1747 
z
M 1159 2969 
Q 1341 3281 1617 3432 
Q 1894 3584 2278 3584 
Q 2916 3584 3314 3078 
Q 3713 2572 3713 1747 
Q 3713 922 3314 415 
Q 2916 -91 2278 -91 
Q 1894 -91 1617 61 
Q 1341 213 1159 525 
L 1159 0 
L 581 0 
L 581 4863 
L 1159 4863 
L 1159 2969 
z
" transform="scale(0.015625)"/>
       <path id="DejaVuSans-59" d="M 191 3500 
L 800 3500 
L 1894 563 
L 2988 3500 
L 3597 3500 
L 2284 0 
L 1503 0 
L 191 3500 
z
" transform="scale(0.015625)"/>
       <path id="DejaVuSans-48" d="M 3597 1894 
L 3597 1613 
L 953 1613 
Q 991 1019 1311 708 
Q 1631 397 2203 397 
Q 2534 397 2845 478 
Q 3156 559 3463 722 
L 3463 178 
Q 3153 47 2828 -22 
Q 2503 -91 2169 -91 
Q 1331 -91 842 396 
Q 353 884 353 1716 
Q 353 2575 817 3079 
Q 1281 3584 2069 3584 
Q 2775 3584 3186 3129 
Q 3597 2675 3597 1894 
z
M 3022 2063 
Q 3016 2534 2758 2815 
Q 2500 3097 2075 3097 
Q 1594 3097 1305 2825 
Q 1016 2553 972 2059 
L 3022 2063 
z
" transform="scale(0.015625)"/>
      </defs>
      <use xlink:href="#DejaVuSans-53"/>
      <use xlink:href="#DejaVuSans-52" transform="translate(63.484375 0)"/>
      <use xlink:href="#DejaVuSans-4c" transform="translate(124.671875 0)"/>
      <use xlink:href="#DejaVuSans-51" transform="translate(152.453125 0)"/>
      <use xlink:href="#DejaVuSans-57" transform="translate(215.828125 0)"/>
      <use xlink:href="#DejaVuSans-56" transform="translate(255.03125 0)"/>
      <use xlink:href="#DejaVuSans-3" transform="translate(307.125 0)"/>
      <use xlink:href="#DejaVuSans-44" transform="translate(338.90625 0)"/>
      <use xlink:href="#DejaVuSans-45" transform="translate(400.1875 0)"/>
      <use xlink:href="#DejaVuSans-52" transform="translate(463.671875 0)"/>
      <use xlink:href="#DejaVuSans-59" transform="translate(524.859375 0)"/>
      <use xlink:href="#DejaVuSans-48" transform="translate(584.046875 0)"/>
      <use xlink:href="#DejaVuSans-3" transform="translate(645.578125 0)"/>
      <use xlink:href="#DejaVuSans-45" transform="translate(677.359375 0)"/>
      <use xlink:href="#DejaVuSans-44" transform="translate(740.84375 0)"/>
      <use xlink:href="#DejaVuSans-56" transform="translate(802.125 0)"/>
      <use xlink:href="#DejaVuSans-48" transform="translate(854.21875 0)"/>
     </g>
    </g>
   </g>
   <g id="line2d_20">
    <path d="M 40.468672 198.208359 
L 475.708672 198.208359 
" clip-path="url(#p651c4721d7)" style="fill: none; stroke: #0b0b0b; stroke-linecap: square"/>
   </g>
   <g id="patch_3">
    <path d="M 40.468672 242.938359 
L 40.468672 21.178359 
" style="fill: none; stroke: #e2e1dd; stroke-width: 0.8; stroke-linejoin: miter; stroke-linecap: square"/>
   </g>
   <g id="patch_4">
    <path d="M 40.468672 242.938359 
L 475.708672 242.938359 
" style="fill: none; stroke: #e2e1dd; stroke-width: 0.8; stroke-linejoin: miter; stroke-linecap: square"/>
   </g>
   <g id="patch_5">
    <path d="M 60.252308 198.208359 
L 86.852727 198.208359 
L 86.852727 166.708359 
L 60.252308 166.708359 
z
" clip-path="url(#p651c4721d7)" style="fill: #eb6834"/>
   </g>
   <g id="patch_6">
    <path d="M 145.292011 198.208359 
L 171.89243 198.208359 
L 171.89243 81.658359 
L 145.292011 81.658359 
z
" clip-path="url(#p651c4721d7)" style="fill: #eb6834"/>
   </g>
   <g id="patch_7">
    <path d="M 230.331713 198.208359 
L 256.932132 198.208359 
L 256.932132 31.258359 
L 230.331713 31.258359 
z
" clip-path="url(#p651c4721d7)" style="fill: #eb6834"/>
   </g>
   <g id="patch_8">
    <path d="M 315.371415 198.208359 
L 341.971834 198.208359 
L 341.971834 116.308359 
L 315.371415 116.308359 
z
" clip-path="url(#p651c4721d7)" style="fill: #eb6834"/>
   </g>
   <g id="patch_9">
    <path d="M 400.411118 198.208359 
L 427.011537 198.208359 
L 427.011537 232.858359 
L 400.411118 232.858359 
z
" clip-path="url(#p651c4721d7)" style="fill: #eb6834"/>
   </g>
   <g id="patch_10">
    <path d="M 89.165807 198.208359 
L 115.766226 198.208359 
L 115.766226 106.858359 
L 89.165807 106.858359 
z
" clip-path="url(#p651c4721d7)" style="fill: #1baf7a"/>
   </g>
   <g id="patch_11">
    <path d="M 174.205509 198.208359 
L 200.805928 198.208359 
L 200.805928 232.858359 
L 174.205509 232.858359 
z
" clip-path="url(#p651c4721d7)" style="fill: #1baf7a"/>
   </g>
   <g id="patch_12">
    <path d="M 259.245212 198.208359 
L 285.845631 198.208359 
L 285.845631 138.358359 
L 259.245212 138.358359 
z
" clip-path="url(#p651c4721d7)" style="fill: #1baf7a"/>
   </g>
   <g id="patch_13">
    <path d="M 344.284914 198.208359 
L 370.885333 198.208359 
L 370.885333 84.808359 
L 344.284914 84.808359 
z
" clip-path="url(#p651c4721d7)" style="fill: #1baf7a"/>
   </g>
   <g id="patch_14">
    <path d="M 429.324617 198.208359 
L 455.925036 198.208359 
L 455.925036 144.658359 
L 429.324617 144.658359 
z
" clip-path="url(#p651c4721d7)" style="fill: #1baf7a"/>
   </g>
   <g id="text_14">
    <!-- Two routes out of a damaged adapter, and only one survives the largest models -->
    <g style="fill: #0b0b0b" transform="translate(40.468672 15.178359) scale(0.105 -0.105)">
     <defs>
      <path id="DejaVuSans-37" d="M -19 4666 
L 3928 4666 
L 3928 4134 
L 2272 4134 
L 2272 0 
L 1638 0 
L 1638 4134 
L -19 4134 
L -19 4666 
z
" transform="scale(0.015625)"/>
      <path id="DejaVuSans-5a" d="M 269 3500 
L 844 3500 
L 1563 769 
L 2278 3500 
L 2956 3500 
L 3675 769 
L 4391 3500 
L 4966 3500 
L 4050 0 
L 3372 0 
L 2619 2869 
L 1863 0 
L 1184 0 
L 269 3500 
z
" transform="scale(0.015625)"/>
      <path id="DejaVuSans-55" d="M 2631 2963 
Q 2534 3019 2420 3045 
Q 2306 3072 2169 3072 
Q 1681 3072 1420 2755 
Q 1159 2438 1159 1844 
L 1159 0 
L 581 0 
L 581 3500 
L 1159 3500 
L 1159 2956 
Q 1341 3275 1631 3429 
Q 1922 3584 2338 3584 
Q 2397 3584 2469 3576 
Q 2541 3569 2628 3553 
L 2631 2963 
z
" transform="scale(0.015625)"/>
      <path id="DejaVuSans-58" d="M 544 1381 
L 544 3500 
L 1119 3500 
L 1119 1403 
Q 1119 906 1312 657 
Q 1506 409 1894 409 
Q 2359 409 2629 706 
Q 2900 1003 2900 1516 
L 2900 3500 
L 3475 3500 
L 3475 0 
L 2900 0 
L 2900 538 
Q 2691 219 2414 64 
Q 2138 -91 1772 -91 
Q 1169 -91 856 284 
Q 544 659 544 1381 
z
M 1991 3584 
L 1991 3584 
z
" transform="scale(0.015625)"/>
      <path id="DejaVuSans-49" d="M 2375 4863 
L 2375 4384 
L 1825 4384 
Q 1516 4384 1395 4259 
Q 1275 4134 1275 3809 
L 1275 3500 
L 2222 3500 
L 2222 3053 
L 1275 3053 
L 1275 0 
L 697 0 
L 697 3053 
L 147 3053 
L 147 3500 
L 697 3500 
L 697 3744 
Q 697 4328 969 4595 
Q 1241 4863 1831 4863 
L 2375 4863 
z
" transform="scale(0.015625)"/>
      <path id="DejaVuSans-47" d="M 2906 2969 
L 2906 4863 
L 3481 4863 
L 3481 0 
L 2906 0 
L 2906 525 
Q 2725 213 2448 61 
Q 2172 -91 1784 -91 
Q 1150 -91 751 415 
Q 353 922 353 1747 
Q 353 2572 751 3078 
Q 1150 3584 1784 3584 
Q 2172 3584 2448 3432 
Q 2725 3281 2906 2969 
z
M 947 1747 
Q 947 1113 1208 752 
Q 1469 391 1925 391 
Q 2381 391 2643 752 
Q 2906 1113 2906 1747 
Q 2906 2381 2643 2742 
Q 2381 3103 1925 3103 
Q 1469 3103 1208 2742 
Q 947 2381 947 1747 
z
" transform="scale(0.015625)"/>
      <path id="DejaVuSans-50" d="M 3328 2828 
Q 3544 3216 3844 3400 
Q 4144 3584 4550 3584 
Q 5097 3584 5394 3201 
Q 5691 2819 5691 2113 
L 5691 0 
L 5113 0 
L 5113 2094 
Q 5113 2597 4934 2840 
Q 4756 3084 4391 3084 
Q 3944 3084 3684 2787 
Q 3425 2491 3425 1978 
L 3425 0 
L 2847 0 
L 2847 2094 
Q 2847 2600 2669 2842 
Q 2491 3084 2119 3084 
Q 1678 3084 1418 2786 
Q 1159 2488 1159 1978 
L 1159 0 
L 581 0 
L 581 3500 
L 1159 3500 
L 1159 2956 
Q 1356 3278 1631 3431 
Q 1906 3584 2284 3584 
Q 2666 3584 2933 3390 
Q 3200 3197 3328 2828 
z
" transform="scale(0.015625)"/>
      <path id="DejaVuSans-4a" d="M 2906 1791 
Q 2906 2416 2648 2759 
Q 2391 3103 1925 3103 
Q 1463 3103 1205 2759 
Q 947 2416 947 1791 
Q 947 1169 1205 825 
Q 1463 481 1925 481 
Q 2391 481 2648 825 
Q 2906 1169 2906 1791 
z
M 3481 434 
Q 3481 -459 3084 -895 
Q 2688 -1331 1869 -1331 
Q 1566 -1331 1297 -1286 
Q 1028 -1241 775 -1147 
L 775 -588 
Q 1028 -725 1275 -790 
Q 1522 -856 1778 -856 
Q 2344 -856 2625 -561 
Q 2906 -266 2906 331 
L 2906 616 
Q 2728 306 2450 153 
Q 2172 0 1784 0 
Q 1141 0 747 490 
Q 353 981 353 1791 
Q 353 2603 747 3093 
Q 1141 3584 1784 3584 
Q 2172 3584 2450 3431 
Q 2728 3278 2906 2969 
L 2906 3500 
L 3481 3500 
L 3481 434 
z
" transform="scale(0.015625)"/>
      <path id="DejaVuSans-f" d="M 750 794 
L 1409 794 
L 1409 256 
L 897 -744 
L 494 -744 
L 750 256 
L 750 794 
z
" transform="scale(0.015625)"/>
      <path id="DejaVuSans-4f" d="M 603 4863 
L 1178 4863 
L 1178 0 
L 603 0 
L 603 4863 
z
" transform="scale(0.015625)"/>
      <path id="DejaVuSans-5c" d="M 2059 -325 
Q 1816 -950 1584 -1140 
Q 1353 -1331 966 -1331 
L 506 -1331 
L 506 -850 
L 844 -850 
Q 1081 -850 1212 -737 
Q 1344 -625 1503 -206 
L 1606 56 
L 191 3500 
L 800 3500 
L 1894 763 
L 2988 3500 
L 3597 3500 
L 2059 -325 
z
" transform="scale(0.015625)"/>
      <path id="DejaVuSans-4b" d="M 3513 2113 
L 3513 0 
L 2938 0 
L 2938 2094 
Q 2938 2591 2744 2837 
Q 2550 3084 2163 3084 
Q 1697 3084 1428 2787 
Q 1159 2491 1159 1978 
L 1159 0 
L 581 0 
L 581 4863 
L 1159 4863 
L 1159 2956 
Q 1366 3272 1645 3428 
Q 1925 3584 2291 3584 
Q 2894 3584 3203 3211 
Q 3513 2838 3513 2113 
z
" transform="scale(0.015625)"/>
     </defs>
     <use xlink:href="#DejaVuSans-37"/>
     <use xlink:href="#DejaVuSans-5a" transform="translate(44.53125 0)"/>
     <use xlink:href="#DejaVuSans-52" transform="translate(126.3125 0)"/>
     <use xlink:href="#DejaVuSans-3" transform="translate(187.5 0)"/>
     <use xlink:href="#DejaVuSans-55" transform="translate(219.28125 0)"/>
     <use xlink:href="#DejaVuSans-52" transform="translate(258.1875 0)"/>
     <use xlink:href="#DejaVuSans-58" transform="translate(319.375 0)"/>
     <use xlink:href="#DejaVuSans-57" transform="translate(382.75 0)"/>
     <use xlink:href="#DejaVuSans-48" transform="translate(421.953125 0)"/>
     <use xlink:href="#DejaVuSans-56" transform="translate(483.484375 0)"/>
     <use xlink:href="#DejaVuSans-3" transform="translate(535.578125 0)"/>
     <use xlink:href="#DejaVuSans-52" transform="translate(567.359375 0)"/>
     <use xlink:href="#DejaVuSans-58" transform="translate(628.546875 0)"/>
     <use xlink:href="#DejaVuSans-57" transform="translate(691.921875 0)"/>
     <use xlink:href="#DejaVuSans-3" transform="translate(731.125 0)"/>
     <use xlink:href="#DejaVuSans-52" transform="translate(762.90625 0)"/>
     <use xlink:href="#DejaVuSans-49" transform="translate(824.09375 0)"/>
     <use xlink:href="#DejaVuSans-3" transform="translate(859.296875 0)"/>
     <use xlink:href="#DejaVuSans-44" transform="translate(891.078125 0)"/>
     <use xlink:href="#DejaVuSans-3" transform="translate(952.359375 0)"/>
     <use xlink:href="#DejaVuSans-47" transform="translate(984.140625 0)"/>
     <use xlink:href="#DejaVuSans-44" transform="translate(1047.625 0)"/>
     <use xlink:href="#DejaVuSans-50" transform="translate(1108.90625 0)"/>
     <use xlink:href="#DejaVuSans-44" transform="translate(1206.3125 0)"/>
     <use xlink:href="#DejaVuSans-4a" transform="translate(1267.59375 0)"/>
     <use xlink:href="#DejaVuSans-48" transform="translate(1331.078125 0)"/>
     <use xlink:href="#DejaVuSans-47" transform="translate(1392.609375 0)"/>
     <use xlink:href="#DejaVuSans-3" transform="translate(1456.09375 0)"/>
     <use xlink:href="#DejaVuSans-44" transform="translate(1487.875 0)"/>
     <use xlink:href="#DejaVuSans-47" transform="translate(1549.15625 0)"/>
     <use xlink:href="#DejaVuSans-44" transform="translate(1612.640625 0)"/>
     <use xlink:href="#DejaVuSans-53" transform="translate(1673.921875 0)"/>
     <use xlink:href="#DejaVuSans-57" transform="translate(1737.40625 0)"/>
     <use xlink:href="#DejaVuSans-48" transform="translate(1776.609375 0)"/>
     <use xlink:href="#DejaVuSans-55" transform="translate(1838.140625 0)"/>
     <use xlink:href="#DejaVuSans-f" transform="translate(1879.25 0)"/>
     <use xlink:href="#DejaVuSans-3" transform="translate(1911.03125 0)"/>
     <use xlink:href="#DejaVuSans-44" transform="translate(1942.8125 0)"/>
     <use xlink:href="#DejaVuSans-51" transform="translate(2004.09375 0)"/>
     <use xlink:href="#DejaVuSans-47" transform="translate(2067.46875 0)"/>
     <use xlink:href="#DejaVuSans-3" transform="translate(2130.953125 0)"/>
     <use xlink:href="#DejaVuSans-52" transform="translate(2162.734375 0)"/>
     <use xlink:href="#DejaVuSans-51" transform="translate(2223.921875 0)"/>
     <use xlink:href="#DejaVuSans-4f" transform="translate(2287.296875 0)"/>
     <use xlink:href="#DejaVuSans-5c" transform="translate(2315.078125 0)"/>
     <use xlink:href="#DejaVuSans-3" transform="translate(2374.265625 0)"/>
     <use xlink:href="#DejaVuSans-52" transform="translate(2406.046875 0)"/>
     <use xlink:href="#DejaVuSans-51" transform="translate(2467.234375 0)"/>
     <use xlink:href="#DejaVuSans-48" transform="translate(2530.609375 0)"/>
     <use xlink:href="#DejaVuSans-3" transform="translate(2592.140625 0)"/>
     <use xlink:href="#DejaVuSans-56" transform="translate(2623.921875 0)"/>
     <use xlink:href="#DejaVuSans-58" transform="translate(2676.015625 0)"/>
     <use xlink:href="#DejaVuSans-55" transform="translate(2739.390625 0)"/>
     <use xlink:href="#DejaVuSans-59" transform="translate(2780.5 0)"/>
     <use xlink:href="#DejaVuSans-4c" transform="translate(2839.6875 0)"/>
     <use xlink:href="#DejaVuSans-59" transform="translate(2867.46875 0)"/>
     <use xlink:href="#DejaVuSans-48" transform="translate(2926.65625 0)"/>
     <use xlink:href="#DejaVuSans-56" transform="translate(2988.1875 0)"/>
     <use xlink:href="#DejaVuSans-3" transform="translate(3040.28125 0)"/>
     <use xlink:href="#DejaVuSans-57" transform="translate(3072.0625 0)"/>
     <use xlink:href="#DejaVuSans-4b" transform="translate(3111.265625 0)"/>
     <use xlink:href="#DejaVuSans-48" transform="translate(3174.640625 0)"/>
     <use xlink:href="#DejaVuSans-3" transform="translate(3236.171875 0)"/>
     <use xlink:href="#DejaVuSans-4f" transform="translate(3267.953125 0)"/>
     <use xlink:href="#DejaVuSans-44" transform="translate(3295.734375 0)"/>
     <use xlink:href="#DejaVuSans-55" transform="translate(3357.015625 0)"/>
     <use xlink:href="#DejaVuSans-4a" transform="translate(3396.375 0)"/>
     <use xlink:href="#DejaVuSans-48" transform="translate(3459.859375 0)"/>
     <use xlink:href="#DejaVuSans-56" transform="translate(3521.390625 0)"/>
     <use xlink:href="#DejaVuSans-57" transform="translate(3573.484375 0)"/>
     <use xlink:href="#DejaVuSans-3" transform="translate(3612.6875 0)"/>
     <use xlink:href="#DejaVuSans-50" transform="translate(3644.46875 0)"/>
     <use xlink:href="#DejaVuSans-52" transform="translate(3741.875 0)"/>
     <use xlink:href="#DejaVuSans-47" transform="translate(3803.0625 0)"/>
     <use xlink:href="#DejaVuSans-48" transform="translate(3866.546875 0)"/>
     <use xlink:href="#DejaVuSans-4f" transform="translate(3928.078125 0)"/>
     <use xlink:href="#DejaVuSans-56" transform="translate(3955.859375 0)"/>
    </g>
   </g>
   <g id="legend_1">
    <g id="patch_15">
     <path d="M 384.034844 35.287031 
L 401.034844 35.287031 
L 401.034844 29.337031 
L 384.034844 29.337031 
z
" style="fill: #eb6834"/>
    </g>
    <g id="text_15">
     <!-- rank 1 @ 1 bit -->
     <g style="fill: #52514e" transform="translate(407.834844 35.287031) scale(0.085 -0.085)">
      <defs>
       <path id="DejaVuSans-4e" d="M 581 4863 
L 1159 4863 
L 1159 1991 
L 2875 3500 
L 3609 3500 
L 1753 1863 
L 3688 0 
L 2938 0 
L 1159 1709 
L 1159 0 
L 581 0 
L 581 4863 
z
" transform="scale(0.015625)"/>
       <path id="DejaVuSans-23" d="M 2381 1678 
Q 2381 1231 2603 976 
Q 2825 722 3213 722 
Q 3597 722 3817 978 
Q 4038 1234 4038 1678 
Q 4038 2116 3813 2373 
Q 3588 2631 3206 2631 
Q 2828 2631 2604 2375 
Q 2381 2119 2381 1678 
z
M 4084 744 
Q 3897 503 3655 389 
Q 3413 275 3091 275 
Q 2553 275 2217 664 
Q 1881 1053 1881 1678 
Q 1881 2303 2218 2693 
Q 2556 3084 3091 3084 
Q 3413 3084 3656 2967 
Q 3900 2850 4084 2613 
L 4084 3022 
L 4531 3022 
L 4531 722 
Q 4988 791 5245 1139 
Q 5503 1488 5503 2041 
Q 5503 2375 5404 2669 
Q 5306 2963 5106 3213 
Q 4781 3622 4314 3839 
Q 3847 4056 3297 4056 
Q 2913 4056 2559 3954 
Q 2206 3853 1906 3653 
Q 1416 3334 1139 2817 
Q 863 2300 863 1697 
Q 863 1200 1042 765 
Q 1222 331 1563 0 
Q 1891 -325 2322 -495 
Q 2753 -666 3244 -666 
Q 3647 -666 4036 -530 
Q 4425 -394 4750 -141 
L 5031 -488 
Q 4641 -791 4180 -952 
Q 3719 -1113 3244 -1113 
Q 2666 -1113 2153 -908 
Q 1641 -703 1241 -313 
Q 841 78 631 592 
Q 422 1106 422 1697 
Q 422 2266 634 2781 
Q 847 3297 1241 3688 
Q 1644 4084 2172 4295 
Q 2700 4506 3291 4506 
Q 3953 4506 4520 4234 
Q 5088 3963 5472 3463 
Q 5706 3156 5829 2797 
Q 5953 2438 5953 2053 
Q 5953 1231 5456 756 
Q 4959 281 4084 263 
L 4084 744 
z
" transform="scale(0.015625)"/>
      </defs>
      <use xlink:href="#DejaVuSans-55"/>
      <use xlink:href="#DejaVuSans-44" transform="translate(41.109375 0)"/>
      <use xlink:href="#DejaVuSans-51" transform="translate(102.390625 0)"/>
      <use xlink:href="#DejaVuSans-4e" transform="translate(165.765625 0)"/>
      <use xlink:href="#DejaVuSans-3" transform="translate(223.671875 0)"/>
      <use xlink:href="#DejaVuSans-14" transform="translate(255.453125 0)"/>
      <use xlink:href="#DejaVuSans-3" transform="translate(319.078125 0)"/>
      <use xlink:href="#DejaVuSans-23" transform="translate(350.859375 0)"/>
      <use xlink:href="#DejaVuSans-3" transform="translate(450.859375 0)"/>
      <use xlink:href="#DejaVuSans-14" transform="translate(482.640625 0)"/>
      <use xlink:href="#DejaVuSans-3" transform="translate(546.265625 0)"/>
      <use xlink:href="#DejaVuSans-45" transform="translate(578.046875 0)"/>
      <use xlink:href="#DejaVuSans-4c" transform="translate(641.53125 0)"/>
      <use xlink:href="#DejaVuSans-57" transform="translate(669.3125 0)"/>
     </g>
    </g>
    <g id="patch_16">
     <path d="M 384.034844 48.037695 
L 401.034844 48.037695 
L 401.034844 42.087695 
L 384.034844 42.087695 
z
" style="fill: #1baf7a"/>
    </g>
    <g id="text_16">
     <!-- top 4 dropped -->
     <g style="fill: #52514e" transform="translate(407.834844 48.037695) scale(0.085 -0.085)">
      <use xlink:href="#DejaVuSans-57"/>
      <use xlink:href="#DejaVuSans-52" transform="translate(39.203125 0)"/>
      <use xlink:href="#DejaVuSans-53" transform="translate(100.390625 0)"/>
      <use xlink:href="#DejaVuSans-3" transform="translate(163.875 0)"/>
      <use xlink:href="#DejaVuSans-17" transform="translate(195.65625 0)"/>
      <use xlink:href="#DejaVuSans-3" transform="translate(259.28125 0)"/>
      <use xlink:href="#DejaVuSans-47" transform="translate(291.0625 0)"/>
      <use xlink:href="#DejaVuSans-55" transform="translate(354.546875 0)"/>
      <use xlink:href="#DejaVuSans-52" transform="translate(393.453125 0)"/>
      <use xlink:href="#DejaVuSans-53" transform="translate(454.640625 0)"/>
      <use xlink:href="#DejaVuSans-53" transform="translate(518.125 0)"/>
      <use xlink:href="#DejaVuSans-48" transform="translate(581.609375 0)"/>
      <use xlink:href="#DejaVuSans-47" transform="translate(643.140625 0)"/>
     </g>
    </g>
   </g>
  </g>
 </g>
 <defs>
  <clipPath id="p651c4721d7">
   <rect x="40.468672" y="21.178359" width="435.24" height="221.76"/>
  </clipPath>
 </defs>
</svg>
